<mxfile host="65bd71144e">
    <diagram id="9oCHJ3sjVKt0yvG-OSKr" name="ページ1">
        <mxGraphModel dx="732" dy="1167" grid="1" gridSize="10" guides="1" tooltips="1" connect="1" arrows="1" fold="1" page="1" pageScale="1" pageWidth="827" pageHeight="1169" math="0" shadow="0">
            <root>
                <mxCell id="0"/>
                <mxCell id="1" parent="0"/>
                <mxCell id="4" value="盤面" style="html=1;" parent="1" vertex="1">
                    <mxGeometry x="530" y="450" width="110" height="50" as="geometry"/>
                </mxCell>
                <mxCell id="5" value="対戦（開始）&lt;span style=&quot;color: rgba(0 , 0 , 0 , 0) ; font-family: monospace ; font-size: 0px&quot;&gt;%3CmxGraphModel%3E%3Croot%3E%3CmxCell%20id%3D%220%22%2F%3E%3CmxCell%20id%3D%221%22%20parent%3D%220%22%2F%3E%3CmxCell%20id%3D%222%22%20value%3D%22%22%20style%3D%22endArrow%3Dnone%3Bhtml%3D1%3BentryX%3D0%3BentryY%3D0.5%3BentryDx%3D0%3BentryDy%3D0%3B%22%20edge%3D%221%22%20parent%3D%221%22%3E%3CmxGeometry%20relative%3D%221%22%20as%3D%22geometry%22%3E%3CmxPoint%20x%3D%22110%22%20y%3D%22570%22%20as%3D%22sourcePoint%22%2F%3E%3CmxPoint%20x%3D%22200%22%20y%3D%22670%22%20as%3D%22targetPoint%22%2F%3E%3C%2FmxGeometry%3E%3C%2FmxCell%3E%3C%2Froot%3E%3C%2FmxGraphModel%3E&lt;/span&gt;" style="html=1;" parent="1" vertex="1">
                    <mxGeometry x="210" y="370" width="110" height="50" as="geometry"/>
                </mxCell>
                <mxCell id="6" value="対戦結果" style="html=1;" parent="1" vertex="1">
                    <mxGeometry x="210" y="490" width="110" height="50" as="geometry"/>
                </mxCell>
                <mxCell id="7" value="石" style="html=1;" parent="1" vertex="1">
                    <mxGeometry x="680" y="550" width="110" height="50" as="geometry"/>
                </mxCell>
                <mxCell id="8" value="プレイヤー" style="html=1;" parent="1" vertex="1">
                    <mxGeometry x="30" y="370" width="110" height="50" as="geometry"/>
                </mxCell>
                <mxCell id="9" value="石の種類&lt;br&gt;・空&lt;br&gt;・黒&lt;br&gt;・白" style="shape=note;whiteSpace=wrap;html=1;backgroundOutline=1;darkOpacity=0.05;fillColor=#fff2cc;strokeColor=#d6b656;align=left;" parent="1" vertex="1">
                    <mxGeometry x="700" y="640" width="90" height="80" as="geometry"/>
                </mxCell>
                <mxCell id="10" value="" style="endArrow=none;dashed=1;html=1;entryX=0.582;entryY=1.01;entryDx=0;entryDy=0;entryPerimeter=0;" parent="1" source="9" target="7" edge="1">
                    <mxGeometry width="50" height="50" relative="1" as="geometry">
                        <mxPoint x="490" y="560" as="sourcePoint"/>
                        <mxPoint x="360" y="560" as="targetPoint"/>
                    </mxGeometry>
                </mxCell>
                <mxCell id="11" value="" style="endArrow=none;html=1;edgeStyle=orthogonalEdgeStyle;exitX=1;exitY=0.5;exitDx=0;exitDy=0;" parent="1" source="8" edge="1">
                    <mxGeometry relative="1" as="geometry">
                        <mxPoint x="140" y="470" as="sourcePoint"/>
                        <mxPoint x="210" y="395" as="targetPoint"/>
                    </mxGeometry>
                </mxCell>
                <mxCell id="12" value="1" style="edgeLabel;resizable=0;html=1;align=left;verticalAlign=bottom;" parent="11" connectable="0" vertex="1">
                    <mxGeometry x="-1" relative="1" as="geometry"/>
                </mxCell>
                <mxCell id="13" value="*" style="edgeLabel;resizable=0;html=1;align=right;verticalAlign=bottom;" parent="11" connectable="0" vertex="1">
                    <mxGeometry x="1" relative="1" as="geometry"/>
                </mxCell>
                <mxCell id="14" value="" style="endArrow=none;html=1;edgeStyle=orthogonalEdgeStyle;exitX=0.5;exitY=1;exitDx=0;exitDy=0;entryX=0.5;entryY=0;entryDx=0;entryDy=0;" parent="1" source="5" target="6" edge="1">
                    <mxGeometry relative="1" as="geometry">
                        <mxPoint x="140" y="405" as="sourcePoint"/>
                        <mxPoint x="220" y="405" as="targetPoint"/>
                    </mxGeometry>
                </mxCell>
                <mxCell id="15" value="1" style="edgeLabel;resizable=0;html=1;align=left;verticalAlign=bottom;" parent="14" connectable="0" vertex="1">
                    <mxGeometry x="-1" relative="1" as="geometry"/>
                </mxCell>
                <mxCell id="16" value="0..1" style="edgeLabel;resizable=0;html=1;align=right;verticalAlign=bottom;" parent="14" connectable="0" vertex="1">
                    <mxGeometry x="1" relative="1" as="geometry"/>
                </mxCell>
                <mxCell id="19" value="ターン" style="html=1;" parent="1" vertex="1">
                    <mxGeometry x="390" y="370" width="110" height="50" as="geometry"/>
                </mxCell>
                <mxCell id="20" value="" style="endArrow=none;html=1;edgeStyle=orthogonalEdgeStyle;exitX=1;exitY=0.5;exitDx=0;exitDy=0;entryX=0;entryY=0.5;entryDx=0;entryDy=0;" parent="1" source="5" target="19" edge="1">
                    <mxGeometry relative="1" as="geometry">
                        <mxPoint x="210" y="490" as="sourcePoint"/>
                        <mxPoint x="370" y="490" as="targetPoint"/>
                    </mxGeometry>
                </mxCell>
                <mxCell id="21" value="1" style="edgeLabel;resizable=0;html=1;align=left;verticalAlign=bottom;" parent="20" connectable="0" vertex="1">
                    <mxGeometry x="-1" relative="1" as="geometry"/>
                </mxCell>
                <mxCell id="22" value="*" style="edgeLabel;resizable=0;html=1;align=right;verticalAlign=bottom;" parent="20" connectable="0" vertex="1">
                    <mxGeometry x="1" relative="1" as="geometry"/>
                </mxCell>
                <mxCell id="23" value="" style="endArrow=none;html=1;exitX=1;exitY=1;exitDx=0;exitDy=0;entryX=0;entryY=0;entryDx=0;entryDy=0;" parent="1" source="19" target="4" edge="1">
                    <mxGeometry relative="1" as="geometry">
                        <mxPoint x="330" y="405" as="sourcePoint"/>
                        <mxPoint x="400" y="405" as="targetPoint"/>
                    </mxGeometry>
                </mxCell>
                <mxCell id="24" value="1" style="edgeLabel;resizable=0;html=1;align=left;verticalAlign=bottom;" parent="23" connectable="0" vertex="1">
                    <mxGeometry x="-1" relative="1" as="geometry"/>
                </mxCell>
                <mxCell id="25" value="1" style="edgeLabel;resizable=0;html=1;align=right;verticalAlign=bottom;" parent="23" connectable="0" vertex="1">
                    <mxGeometry x="1" relative="1" as="geometry"/>
                </mxCell>
                <mxCell id="29" value="マス目" style="html=1;" parent="1" vertex="1">
                    <mxGeometry x="680" y="450" width="110" height="50" as="geometry"/>
                </mxCell>
                <mxCell id="30" value="" style="endArrow=none;html=1;edgeStyle=orthogonalEdgeStyle;exitX=1;exitY=0.5;exitDx=0;exitDy=0;entryX=0;entryY=0.5;entryDx=0;entryDy=0;" parent="1" source="4" target="29" edge="1">
                    <mxGeometry relative="1" as="geometry">
                        <mxPoint x="510" y="405" as="sourcePoint"/>
                        <mxPoint x="660" y="465" as="targetPoint"/>
                    </mxGeometry>
                </mxCell>
                <mxCell id="31" value="1" style="edgeLabel;resizable=0;html=1;align=left;verticalAlign=bottom;" parent="30" connectable="0" vertex="1">
                    <mxGeometry x="-1" relative="1" as="geometry"/>
                </mxCell>
                <mxCell id="32" value="*" style="edgeLabel;resizable=0;html=1;align=right;verticalAlign=bottom;" parent="30" connectable="0" vertex="1">
                    <mxGeometry x="1" relative="1" as="geometry"/>
                </mxCell>
                <mxCell id="33" value="" style="endArrow=none;html=1;edgeStyle=orthogonalEdgeStyle;exitX=0.5;exitY=1;exitDx=0;exitDy=0;entryX=0.5;entryY=0;entryDx=0;entryDy=0;" parent="1" source="29" target="7" edge="1">
                    <mxGeometry relative="1" as="geometry">
                        <mxPoint x="620" y="475" as="sourcePoint"/>
                        <mxPoint x="670" y="475" as="targetPoint"/>
                    </mxGeometry>
                </mxCell>
                <mxCell id="34" value="1" style="edgeLabel;resizable=0;html=1;align=left;verticalAlign=bottom;" parent="33" connectable="0" vertex="1">
                    <mxGeometry x="-1" relative="1" as="geometry"/>
                </mxCell>
                <mxCell id="35" value="1" style="edgeLabel;resizable=0;html=1;align=right;verticalAlign=bottom;" parent="33" connectable="0" vertex="1">
                    <mxGeometry x="1" relative="1" as="geometry"/>
                </mxCell>
                <mxCell id="37" value="手" style="html=1;" parent="1" vertex="1">
                    <mxGeometry x="530" y="290" width="110" height="50" as="geometry"/>
                </mxCell>
                <mxCell id="39" value="" style="endArrow=none;html=1;exitX=1;exitY=0;exitDx=0;exitDy=0;entryX=0;entryY=1;entryDx=0;entryDy=0;" parent="1" source="19" target="37" edge="1">
                    <mxGeometry relative="1" as="geometry">
                        <mxPoint x="510" y="430" as="sourcePoint"/>
                        <mxPoint x="540" y="460" as="targetPoint"/>
                    </mxGeometry>
                </mxCell>
                <mxCell id="40" value="1" style="edgeLabel;resizable=0;html=1;align=left;verticalAlign=bottom;" parent="39" connectable="0" vertex="1">
                    <mxGeometry x="-1" relative="1" as="geometry"/>
                </mxCell>
                <mxCell id="41" value="1" style="edgeLabel;resizable=0;html=1;align=right;verticalAlign=bottom;" parent="39" connectable="0" vertex="1">
                    <mxGeometry x="1" relative="1" as="geometry"/>
                </mxCell>
            </root>
        </mxGraphModel>
    </diagram>
</mxfile>
